<svg xmlns="http://www.w3.org/2000/svg" id="logo" viewBox="0 0 317 32">
<path d="M0.014 1.685v28.861h3.84v-13.218h13.258v-3.234h-13.258v-9.176h15.117v-3.234h-18.957zM40.792 30.545v-20.898h-3.436v11.803c0 0.943-0.128 1.812-0.384 2.607s-0.64 1.489-1.152 2.082c-0.512 0.593-1.152 1.051-1.92 1.374s-1.677 0.485-2.728 0.485c-1.32 0-2.358-0.377-3.112-1.132s-1.132-1.779-1.132-3.072v-14.147h-3.436v13.743c0 1.132 0.115 2.163 0.344 3.092s0.627 1.731 1.192 2.405c0.566 0.674 1.307 1.192 2.223 1.556s2.061 0.546 3.436 0.546c1.536 0 2.87-0.303 4.002-0.909s2.061-1.556 2.789-2.85h0.081v3.315h3.234zM46.808 9.648v20.898h3.436v-11.803c0-0.943 0.128-1.812 0.384-2.607s0.64-1.489 1.152-2.082c0.512-0.593 1.152-1.051 1.92-1.374s1.677-0.485 2.728-0.485c1.32 0 2.358 0.377 3.112 1.132s1.132 1.779 1.132 3.072v14.147h3.436v-13.743c0-1.132-0.115-2.163-0.344-3.092s-0.627-1.731-1.192-2.405c-0.566-0.674-1.307-1.199-2.223-1.576s-2.061-0.566-3.436-0.566c-3.099 0-5.363 1.267-6.791 3.8h-0.081v-3.315h-3.234zM72.63 20.279c0-1.024 0.108-2.021 0.323-2.991s0.566-1.832 1.051-2.587c0.485-0.755 1.132-1.361 1.94-1.819s1.792-0.687 2.951-0.687c1.186 0 2.196 0.222 3.032 0.667s1.516 1.031 2.041 1.758c0.525 0.728 0.909 1.57 1.152 2.526s0.364 1.947 0.364 2.971c0 0.97-0.115 1.927-0.344 2.87s-0.6 1.785-1.112 2.526c-0.512 0.741-1.172 1.341-1.981 1.799s-1.792 0.687-2.951 0.687c-1.105 0-2.068-0.216-2.89-0.647s-1.496-1.011-2.021-1.738c-0.525-0.728-0.916-1.556-1.172-2.486s-0.384-1.88-0.384-2.85v0zM88.799 30.545v-28.861h-3.436v10.752h-0.081c-0.377-0.62-0.842-1.139-1.395-1.556s-1.139-0.755-1.758-1.011c-0.62-0.256-1.24-0.438-1.859-0.546s-1.199-0.162-1.738-0.162c-1.59 0-2.984 0.29-4.184 0.869s-2.196 1.361-2.991 2.344c-0.795 0.984-1.388 2.136-1.779 3.456s-0.586 2.722-0.586 4.204c0 1.482 0.202 2.883 0.606 4.204s1.004 2.479 1.799 3.476c0.795 0.997 1.792 1.792 2.991 2.385s2.607 0.889 4.224 0.889c1.455 0 2.789-0.256 4.002-0.768s2.102-1.347 2.668-2.506h0.081v2.829h3.436zM108.558 30.545l9.58-28.861h-6.548l-6.508 20.291h-0.081l-6.427-20.291h-6.508l9.337 28.861h7.155zM126.013 6.414v-4.729h-5.74v4.729h5.74zM120.273 9.648v20.898h5.74v-20.898h-5.74zM135.829 23.755h-5.457c0.054 1.401 0.371 2.567 0.95 3.496s1.32 1.677 2.223 2.243c0.903 0.566 1.933 0.97 3.092 1.213s2.344 0.364 3.557 0.364c1.186 0 2.351-0.115 3.496-0.344s2.163-0.627 3.052-1.192c0.889-0.566 1.61-1.314 2.163-2.243s0.829-2.082 0.829-3.456c0-0.97-0.189-1.785-0.566-2.445s-0.876-1.213-1.496-1.657c-0.62-0.445-1.327-0.802-2.122-1.071s-1.61-0.499-2.445-0.687c-0.808-0.189-1.603-0.364-2.385-0.525s-1.475-0.344-2.082-0.546c-0.606-0.202-1.098-0.465-1.475-0.788s-0.566-0.741-0.566-1.253c0-0.431 0.108-0.775 0.323-1.031s0.478-0.451 0.788-0.586c0.31-0.135 0.653-0.222 1.031-0.263s0.728-0.061 1.051-0.061c1.024 0 1.913 0.195 2.668 0.586s1.172 1.139 1.253 2.243h5.457c-0.108-1.293-0.438-2.365-0.99-3.213s-1.246-1.529-2.082-2.041c-0.835-0.512-1.785-0.876-2.85-1.091s-2.163-0.323-3.294-0.323c-1.132 0-2.237 0.101-3.315 0.303s-2.048 0.552-2.91 1.051c-0.862 0.499-1.556 1.179-2.082 2.041s-0.788 1.967-0.788 3.315c0 0.916 0.189 1.691 0.566 2.324s0.876 1.159 1.496 1.576c0.62 0.418 1.327 0.755 2.122 1.011s1.61 0.478 2.445 0.667c2.048 0.431 3.645 0.862 4.79 1.293s1.718 1.078 1.718 1.94c0 0.512-0.121 0.936-0.364 1.273s-0.546 0.606-0.909 0.808c-0.364 0.202-0.768 0.35-1.213 0.445s-0.869 0.141-1.273 0.141c-0.566 0-1.112-0.067-1.637-0.202s-0.99-0.344-1.395-0.627c-0.404-0.283-0.734-0.647-0.99-1.091s-0.384-0.977-0.384-1.597v0zM173.535 30.545v-20.898h-5.74v10.954c0 2.129-0.35 3.658-1.051 4.588s-1.832 1.395-3.395 1.395c-1.374 0-2.331-0.424-2.87-1.273s-0.808-2.136-0.808-3.86v-11.803h-5.74v12.854c0 1.293 0.115 2.472 0.344 3.537s0.627 1.967 1.192 2.708c0.566 0.741 1.341 1.314 2.324 1.718s2.243 0.606 3.779 0.606c1.213 0 2.398-0.269 3.557-0.808s2.102-1.415 2.829-2.627h0.121v2.91h5.457zM178.5 16.075c0.081-1.347 0.418-2.466 1.011-3.355s1.347-1.603 2.264-2.142c0.916-0.539 1.947-0.923 3.092-1.152s2.297-0.344 3.456-0.344c1.051 0 2.115 0.074 3.193 0.222s2.061 0.438 2.951 0.869c0.889 0.431 1.617 1.031 2.183 1.799s0.849 1.785 0.849 3.052v10.873c0 0.943 0.054 1.846 0.162 2.708s0.296 1.509 0.566 1.94h-5.821c-0.108-0.323-0.195-0.653-0.263-0.99s-0.115-0.68-0.141-1.031c-0.916 0.943-1.994 1.603-3.234 1.981s-2.506 0.566-3.8 0.566c-0.997 0-1.927-0.121-2.789-0.364s-1.617-0.62-2.264-1.132c-0.647-0.512-1.152-1.159-1.516-1.94s-0.546-1.711-0.546-2.789c0-1.186 0.209-2.163 0.627-2.931s0.957-1.381 1.617-1.839c0.66-0.458 1.415-0.802 2.264-1.031s1.704-0.411 2.567-0.546c0.862-0.135 1.711-0.243 2.547-0.323s1.576-0.202 2.223-0.364c0.647-0.162 1.159-0.397 1.536-0.707s0.552-0.761 0.525-1.354c0-0.62-0.101-1.112-0.303-1.475s-0.472-0.647-0.808-0.849c-0.337-0.202-0.728-0.337-1.172-0.404s-0.923-0.101-1.435-0.101c-1.132 0-2.021 0.243-2.668 0.728s-1.024 1.293-1.132 2.425h-5.74zM191.758 20.319c-0.243 0.216-0.546 0.384-0.909 0.505s-0.755 0.222-1.172 0.303c-0.418 0.081-0.856 0.148-1.314 0.202s-0.916 0.121-1.374 0.202c-0.431 0.081-0.856 0.189-1.273 0.323s-0.781 0.317-1.091 0.546c-0.31 0.229-0.559 0.519-0.748 0.869s-0.283 0.795-0.283 1.334c0 0.512 0.094 0.943 0.283 1.293s0.445 0.627 0.768 0.829c0.323 0.202 0.701 0.344 1.132 0.424s0.876 0.121 1.334 0.121c1.132 0 2.008-0.189 2.627-0.566s1.078-0.829 1.374-1.354c0.296-0.525 0.478-1.058 0.546-1.597s0.101-0.97 0.101-1.293v-2.142zM202.948 1.685v28.861h5.74v-28.861h-5.74zM219.958 6.414v-4.729h-5.74v4.729h5.74zM214.219 9.648v20.898h5.74v-20.898h-5.74zM224.034 26.22v4.325h19.2v-4.325h-11.641l10.873-12.248v-4.325h-17.624v4.325h10.065l-10.873 12.248zM261.215 17.853h-9.337c0.027-0.404 0.115-0.862 0.263-1.374s0.404-0.997 0.768-1.455c0.364-0.458 0.849-0.842 1.455-1.152s1.368-0.465 2.284-0.465c1.401 0 2.445 0.377 3.133 1.132s1.165 1.859 1.435 3.315v0zM251.878 21.491h15.077c0.108-1.617-0.027-3.166-0.404-4.648s-0.99-2.803-1.839-3.961c-0.849-1.159-1.933-2.082-3.254-2.769s-2.87-1.031-4.648-1.031c-1.59 0-3.038 0.283-4.345 0.849s-2.432 1.341-3.375 2.324c-0.943 0.984-1.671 2.149-2.183 3.496s-0.768 2.803-0.768 4.365c0 1.617 0.249 3.099 0.748 4.446s1.206 2.506 2.122 3.476c0.916 0.97 2.035 1.718 3.355 2.243s2.803 0.788 4.446 0.788c2.371 0 4.392-0.539 6.063-1.617s2.91-2.87 3.719-5.376h-5.053c-0.189 0.647-0.701 1.26-1.536 1.839s-1.832 0.869-2.991 0.869c-1.617 0-2.856-0.418-3.719-1.253s-1.334-2.183-1.415-4.042v0zM271.192 9.648v20.898h5.74v-9.418c0-0.943 0.094-1.819 0.283-2.627s0.505-1.516 0.95-2.122c0.445-0.606 1.031-1.085 1.758-1.435s1.617-0.525 2.668-0.525c0.35 0 0.714 0.020 1.091 0.061s0.701 0.088 0.97 0.141v-5.336c-0.458-0.135-0.876-0.202-1.253-0.202-0.728 0-1.428 0.108-2.102 0.323s-1.307 0.519-1.9 0.909c-0.593 0.391-1.118 0.862-1.576 1.415s-0.822 1.152-1.091 1.799h-0.081v-3.88h-5.457z"></path>
<path d="M314.109 11.302c0-1.374-0.222-2.637-0.667-3.789s-1.061-2.142-1.849-2.971c-0.788-0.829-1.708-1.47-2.759-1.925s-2.183-0.682-3.395-0.682c-1.233 0-2.38 0.227-3.441 0.682s-1.986 1.096-2.774 1.925c-0.788 0.829-1.405 1.819-1.849 2.971s-0.667 2.415-0.667 3.789c0 1.293 0.202 2.506 0.606 3.638s0.985 2.122 1.743 2.971c0.758 0.849 1.672 1.521 2.744 2.016s2.284 0.743 3.638 0.743c1.213 0 2.344-0.227 3.395-0.682s1.971-1.096 2.759-1.925c0.788-0.829 1.405-1.814 1.849-2.956s0.667-2.41 0.667-3.805v0zM316.534 11.302c0 1.698-0.298 3.244-0.894 4.638s-1.405 2.587-2.425 3.577c-1.021 0.99-2.203 1.758-3.547 2.304s-2.754 0.819-4.229 0.819c-1.637 0-3.138-0.288-4.502-0.864s-2.536-1.369-3.517-2.38c-0.98-1.011-1.748-2.208-2.304-3.592s-0.834-2.885-0.834-4.502c0-1.698 0.298-3.244 0.894-4.638s1.405-2.587 2.425-3.577c1.021-0.99 2.208-1.758 3.562-2.304s2.779-0.819 4.275-0.819c1.475 0 2.885 0.273 4.229 0.819s2.526 1.314 3.547 2.304c1.021 0.99 1.829 2.183 2.425 3.577s0.894 2.941 0.894 4.638v0zM305.5 10.665c0.384 0 0.753-0.015 1.107-0.045s0.662-0.116 0.925-0.258c0.263-0.141 0.475-0.339 0.637-0.591s0.243-0.611 0.243-1.076c0-0.384-0.086-0.687-0.258-0.909s-0.389-0.394-0.652-0.515c-0.263-0.121-0.556-0.197-0.879-0.227s-0.637-0.045-0.94-0.045h-2.486v3.668h2.304zM303.196 17.789h-2.061v-12.551h4.76c1.516 0 2.658 0.283 3.426 0.849s1.152 1.485 1.152 2.759c0 1.132-0.313 1.96-0.94 2.486s-1.405 0.839-2.334 0.94l3.517 5.517h-2.334l-3.244-5.366h-1.94v5.366z"></path>
</svg>
